<svg xmlns="http://www.w3.org/2000/svg" viewBox="3172 5260 32 32">
  <defs>
    <style>
      .cls-1 {
        fill: #fff;
      }
    </style>
  </defs>
  <g id="instagram" transform="translate(3172 5260)">
    <g id="Group_52" data-name="Group 52">
      <g id="Group_51" data-name="Group 51">
        <path id="Path_13" data-name="Path 13" class="cls-1" d="M22,0H10A10,10,0,0,0,0,10V22A10,10,0,0,0,10,32H22A10,10,0,0,0,32,22V10A10,10,0,0,0,22,0Zm7,22a7,7,0,0,1-7,7H10a7,7,0,0,1-7-7V10a7,7,0,0,1,7-7H22a7,7,0,0,1,7,7Z"/>
      </g>
    </g>
    <g id="Group_54" data-name="Group 54" transform="translate(8 8)">
      <g id="Group_53" data-name="Group 53">
        <path id="Path_14" data-name="Path 14" class="cls-1" d="M136,128a8,8,0,1,0,8,8A8,8,0,0,0,136,128Zm0,13a5,5,0,1,1,5-5A5.007,5.007,0,0,1,136,141Z" transform="translate(-128 -128)"/>
      </g>
    </g>
    <g id="Group_56" data-name="Group 56" transform="translate(23.531 6.331)">
      <g id="Group_55" data-name="Group 55">
        <circle id="Ellipse_4" data-name="Ellipse 4" class="cls-1" cx="1.069" cy="1.069" r="1.069"/>
      </g>
    </g>
  </g>
</svg>
