<svg xmlns="http://www.w3.org/2000/svg" viewBox="5531 5244 79.951 64.882">
  <defs>
    <style>
      .cls-1 {
        fill: #fff;
      }
    </style>
  </defs>
  <g id="logo_white" transform="translate(4694.224 5242.027)">
    <g id="Group_3" data-name="Group 3" transform="translate(217.601 92.173)">
      <circle id="Ellipse_1" data-name="Ellipse 1" class="cls-1" cx="7" cy="7" r="7" transform="translate(665.5 -90.2)"/>
      <circle id="Ellipse_2" data-name="Ellipse 2" class="cls-1" cx="7" cy="7" r="7" transform="translate(638.9 -90.2)"/>
      <g id="Group_2" data-name="Group 2" transform="translate(0 23.759)">
        <path id="Path_3" data-name="Path 3" class="cls-1" d="M619.2-84.9a41.823,41.823,0,0,0,9,21.3,40.253,40.253,0,0,0,56.6,5.3,38.948,38.948,0,0,0,3.6-3.4,40.565,40.565,0,0,0,10.7-23.2c.3-2.1-2.1-4.2-4.1-4.1-2.5.1-3.8,1.8-4.1,4.1-.1.7.1-.2,0-.2a1.953,1.953,0,0,1-.1.7c-.1.4-.1.8-.2,1.3-.2.8-.4,1.7-.6,2.5-.2.7-.4,1.5-.7,2.3l-.4,1.2c-.1.2-.1.3-.2.5h0a43.7,43.7,0,0,1-2.2,4.3,12.737,12.737,0,0,1-1.3,1.9,5.551,5.551,0,0,1-.6.8c.4-.2.4-.5.1-.2-.2.2-.3.4-.5.6-1.1,1.3-2.2,2.4-3.4,3.6a13.021,13.021,0,0,1-1.8,1.5l-.1.1c.5-.4-.2.1-.2.2a5.248,5.248,0,0,1-1.1.7,30.211,30.211,0,0,1-4.3,2.5c-.3.2-.6.3-.9.5l-.6.3c-.3.1-.5.4.2-.1a10.5,10.5,0,0,1-2.3.8c-1.6.5-3.3.9-4.9,1.3-.4.1-.7.1-1.2.2-.7.1.2,0,.2,0a1.7,1.7,0,0,1-.7.1,21.115,21.115,0,0,1-2.6.2,29.022,29.022,0,0,1-5.1-.2c-.2,0-.5-.1-.7-.1-.5-.1.8.1.2,0-.4-.1-.8-.1-1.3-.2a22.113,22.113,0,0,1-2.5-.5c-1.6-.4-3.2-1.1-4.7-1.6.1,0,.8.4.2.1-.2-.1-.3-.1-.5-.2a4.055,4.055,0,0,1-.9-.5c-.7-.4-1.6-.8-2.3-1.3a22.631,22.631,0,0,1-2-1.3,5.548,5.548,0,0,1-.8-.6,2.18,2.18,0,0,1-.5-.4c-.4-.3.6.5.1.1a28.96,28.96,0,0,1-3.6-3.4c-.6-.6-1.3-1.4-1.8-2-.1-.1-.2-.3-.3-.4-.6-.7.5.7,0,0l-.8-1.2a28.282,28.282,0,0,1-2.7-4.7A5.022,5.022,0,0,1,630-77c-.2-.4-.3-.1.1.2-.1-.2-.2-.5-.3-.7A24.136,24.136,0,0,1,629-80a26.815,26.815,0,0,1-.7-2.7c-.1-.4-.2-.9-.3-1.4,0-.3-.3-2-.1-.7-.3-2.1-1.7-4.2-4.1-4.1-2.5,0-4.9,1.7-4.6,4Z"/>
      </g>
    </g>
  </g>
</svg>
