<?xml version="1.0" encoding="utf-8"?>
<!-- Generator: Adobe Illustrator 21.0.0, SVG Export Plug-In . SVG Version: 6.00 Build 0)  -->
<svg version="1.1" id="Layer_1" xmlns="http://www.w3.org/2000/svg" xmlns:xlink="http://www.w3.org/1999/xlink" x="0px" y="0px"
	 viewBox="0 0 80 80" style="enable-background:new 0 0 80 80;" xml:space="preserve">
<style type="text/css">
	.st0{fill:#5EC2A3;}
	.st1{fill:#2CA0DA;}
</style>
<g transform="translate(-836.765 6.576)">
	<g transform="translate(217.601 92.173)">
		<ellipse class="st0" cx="672.5" cy="-83.2" rx="7" ry="7"/>
		<ellipse class="st0" cx="645.9" cy="-83.2" rx="7" ry="7"/>
		<g transform="translate(0 23.759)">
			<path class="st1" d="M619.2-84.9c0.9,7.8,4.1,15.2,9,21.3c14.2,17.1,39.5,19.4,56.6,5.3c1.3-1.1,2.5-2.2,3.6-3.4
				c6-6.4,9.7-14.5,10.7-23.2c0.3-2.1-2.1-4.2-4.1-4.1c-2.5,0.1-3.8,1.8-4.1,4.1c-0.1,0.7,0.1-0.2,0-0.2c0,0.2,0,0.4-0.1,0.7
				c-0.1,0.4-0.1,0.8-0.2,1.3c-0.2,0.8-0.4,1.7-0.6,2.5c-0.2,0.7-0.4,1.5-0.7,2.3l-0.4,1.2c-0.1,0.2-0.1,0.3-0.2,0.5
				c-0.3,0.7,0.3-0.7,0,0c-0.6,1.5-1.4,2.8-2.2,4.3c-0.4,0.6-0.8,1.4-1.3,1.9c-0.2,0.3-0.4,0.6-0.6,0.8c0.4-0.2,0.4-0.5,0.1-0.2
				c-0.2,0.2-0.3,0.4-0.5,0.6c-1.1,1.3-2.2,2.4-3.4,3.6c-0.5,0.5-1.2,1.1-1.8,1.5c-0.1,0.1-0.5,0.5-0.1,0.1c0.5-0.4-0.2,0.1-0.2,0.2
				c-0.3,0.2-0.6,0.5-1.1,0.7c-1.4,0.9-2.7,1.8-4.3,2.5c-0.3,0.2-0.6,0.3-0.9,0.5c-0.2,0.1-0.4,0.2-0.6,0.3
				c-0.3,0.1-0.5,0.4,0.2-0.1c-0.7,0.4-1.6,0.6-2.3,0.8c-1.6,0.5-3.3,0.9-4.9,1.3c-0.4,0.1-0.7,0.1-1.2,0.2c-0.7,0.1,0.2,0,0.2,0
				c-0.2,0.1-0.5,0.1-0.7,0.1c-0.8,0.1-1.7,0.2-2.6,0.2c-1.7,0.1-3.4,0-5.1-0.2c-0.2,0-0.5-0.1-0.7-0.1c-0.5-0.1,0.8,0.1,0.2,0
				c-0.4-0.1-0.8-0.1-1.3-0.2c-0.8-0.1-1.7-0.3-2.5-0.5c-1.6-0.4-3.2-1.1-4.7-1.6c0.1,0,0.8,0.4,0.2,0.1c-0.2-0.1-0.3-0.1-0.5-0.2
				c-0.3-0.1-0.6-0.3-0.9-0.5c-0.7-0.4-1.6-0.8-2.3-1.3c-0.6-0.4-1.4-0.8-2-1.3c-0.3-0.2-0.6-0.4-0.8-0.6c-0.2-0.1-0.4-0.3-0.5-0.4
				c-0.4-0.3,0.6,0.5,0.1,0.1c-1.3-1.1-2.5-2.1-3.6-3.4c-0.6-0.6-1.3-1.4-1.8-2c-0.1-0.1-0.2-0.3-0.3-0.4c-0.6-0.7,0.5,0.7,0,0
				l-0.8-1.2c-1.1-1.5-2-3.2-2.7-4.7c-0.2-0.4-0.4-0.8-0.5-1.3c-0.2-0.4-0.3-0.1,0.1,0.2c-0.1-0.2-0.2-0.5-0.3-0.7
				c-0.3-0.8-0.6-1.7-0.8-2.5c-0.3-0.9-0.5-1.8-0.7-2.7c-0.1-0.4-0.2-0.9-0.3-1.4c0-0.3-0.3-2-0.1-0.7c-0.3-2.1-1.7-4.2-4.1-4.1
				C621.3-88.9,618.9-87.2,619.2-84.9L619.2-84.9z"/>
		</g>
	</g>
</g>
</svg>
