<svg xmlns="http://www.w3.org/2000/svg" viewBox="3232 5260.681 36.781 32">
  <defs>
    <style>
      .cls-1 {
        fill: #fff;
      }
    </style>
  </defs>
  <path id="telegram" class="cls-1" d="M.653,15.426l8.472,3.162L12.4,29.138a1,1,0,0,0,1.587.478l4.726-3.851a1.4,1.4,0,0,1,1.715-.047L28.951,31.9a1,1,0,0,0,1.564-.607l6.243-30A1,1,0,0,0,35.416.163L.642,13.559A1,1,0,0,0,.653,15.426Zm11.214,1.482,16.559-10.2a.289.289,0,0,1,.35.455l-13.665,12.7a2.81,2.81,0,0,0-.875,1.692l-.467,3.454a.431.431,0,0,1-.84.058l-1.785-6.29A1.652,1.652,0,0,1,11.867,16.908Z" transform="translate(3232 5260.588)"/>
</svg>
