<svg xmlns="http://www.w3.org/2000/svg" viewBox="2985 5260 39.375 32">
  <defs>
    <style>
      .cls-1 {
        fill: #fff;
      }
    </style>
  </defs>
  <path id="twitter" class="cls-1" d="M39.375,3.784A16.684,16.684,0,0,1,34.722,5.06,8.016,8.016,0,0,0,38.275.6a16.188,16.188,0,0,1-5.122,1.953A8.069,8.069,0,0,0,19.2,8.075a8.42,8.42,0,0,0,.185,1.838A22.844,22.844,0,0,1,2.738,1.469a8.072,8.072,0,0,0,2.476,10.79,7.941,7.941,0,0,1-3.645-.992v.092a8.1,8.1,0,0,0,6.468,7.929,8.17,8.17,0,0,1-2.115.269,7.221,7.221,0,0,1-1.53-.138,8.146,8.146,0,0,0,7.544,5.622A16.242,16.242,0,0,1,1.93,28.485,15.884,15.884,0,0,1,0,28.378,22.714,22.714,0,0,0,12.382,32C27.24,32,35.361,19.7,35.361,9.029c0-.354-.015-.7-.031-1.046A16.164,16.164,0,0,0,39.375,3.784Z" transform="translate(2985 5260)"/>
</svg>
